<svg width="100" height="100" viewBox="0 0 100 100" fill="none" xmlns="http://www.w3.org/2000/svg">
<path d="M67.8388 44.0541L67.8388 44.0541L67.8423 44.0486C69.9487 40.6975 71.0022 37.0079 71.0022 32.9912V23.3212C71.0022 20.4534 70.4289 17.7689 69.2792 15.2738C68.2282 12.698 66.7454 10.4952 64.8296 8.6726C63.0096 6.75939 60.8554 5.27637 58.3716 4.22439C55.8756 3.07372 53.1901 2.5 50.3212 2.5C47.4509 2.5 44.7202 3.07421 42.1339 4.22302C39.647 5.27579 37.4456 6.75973 35.5326 8.67272C33.7099 10.4954 32.2283 12.6968 31.0847 15.2699L31.0846 15.2699L31.0811 15.2782C30.0257 17.7728 29.5 20.4556 29.5 23.3212V32.9912C29.5 37.0079 30.5535 40.6975 32.6599 44.0486L32.6599 44.0486L32.6634 44.0541C34.5915 47.0339 37.0853 49.3744 40.1397 51.0701C37.0853 52.7658 34.5915 55.1062 32.6634 58.086C30.5523 61.3487 29.5 65.0413 29.5 69.1489V78.6788C29.5 81.5445 30.0257 84.2715 31.0786 86.8558L31.0829 86.8663L31.0876 86.8767C32.2308 89.3536 33.7094 91.5485 35.5236 93.4582L35.5325 93.4675L35.5418 93.4764C37.4515 95.2906 39.6464 96.7692 42.1233 97.9124L42.1337 97.9171L42.1442 97.9214C44.7285 98.9743 47.4555 99.5 50.3212 99.5C53.1868 99.5 55.8695 98.9743 58.3642 97.9189L58.3716 97.9157L58.3789 97.9124C60.8581 96.7681 63.0099 95.287 64.8295 93.4674C66.7425 91.5544 68.2264 89.353 69.2792 86.8661C70.428 84.2797 71.0022 81.5491 71.0022 78.6788V69.1489C71.0022 65.0413 69.9499 61.3487 67.8388 58.086C65.9107 55.1062 63.4169 52.7658 60.3625 51.0701C63.4169 49.3744 65.9107 47.0339 67.8388 44.0541ZM64.1565 63.3196L64.1564 63.3196L64.1601 63.3278C64.9705 65.1288 65.3774 67.0672 65.3774 69.1489V78.6788C65.3774 80.759 64.9711 82.746 64.1583 84.6442C63.3416 86.4577 62.2551 88.0407 60.899 89.3968C59.5418 90.754 57.9575 91.841 56.1423 92.6579C54.3413 93.4683 52.4029 93.8752 50.3212 93.8752C48.2411 93.8752 46.2541 93.4689 44.356 92.6561C42.5424 91.8395 40.9594 90.753 39.6032 89.3968C38.247 88.0406 37.1606 86.4577 36.3439 84.6441C35.5311 82.746 35.1248 80.759 35.1248 78.6788V69.1489C35.1248 67.0672 35.5317 65.1288 36.3421 63.3278L36.3422 63.3278L36.3457 63.3196C37.1635 61.4115 38.2501 59.784 39.6032 58.4309C40.9593 57.0748 42.5423 55.9884 44.3558 55.1717C46.2539 54.3588 48.241 53.9526 50.3212 53.9526C52.4029 53.9526 54.3413 54.3594 56.1423 55.1698C57.9575 55.9867 59.5418 57.0738 60.899 58.4309C62.2521 59.784 63.3387 61.4115 64.1565 63.3196ZM56.1423 46.8302C54.3413 47.6406 52.4029 48.0474 50.3212 48.0474C48.241 48.0474 46.2539 47.6412 44.3558 46.8283C42.5423 46.0117 40.9593 44.9252 39.6032 43.5691C38.246 42.2119 37.159 40.6276 36.3421 38.8123C35.5317 37.0114 35.1248 35.0729 35.1248 32.9912V23.3212C35.1248 21.2395 35.5317 19.301 36.3421 17.5001C37.159 15.6848 38.246 14.1005 39.6032 12.7433C40.9593 11.3872 42.5423 10.3007 44.3558 9.48408C46.254 8.67124 48.241 8.26496 50.3212 8.26496C52.4029 8.26496 54.3413 8.6718 56.1423 9.48224C57.9575 10.2991 59.5418 11.3862 60.899 12.7433C62.2562 14.1005 63.3432 15.6848 64.1601 17.5001C64.9705 19.301 65.3774 21.2395 65.3774 23.3212V32.9912C65.3774 35.0729 64.9705 37.0114 64.1601 38.8123C63.3432 40.6276 62.2562 42.2119 60.899 43.5691C59.5418 44.9262 57.9575 46.0133 56.1423 46.8302Z" fill="white" stroke="white"/>
</svg>
