<svg width="100" height="100" viewBox="0 0 100 100" fill="none" xmlns="http://www.w3.org/2000/svg">
<path d="M64.0943 42.0874V69.8055C64.0943 71.627 63.7057 73.3677 62.9265 75.0326C62.1429 76.6246 61.0996 78.0161 59.7948 79.21C58.4885 80.4051 56.9616 81.3642 55.2095 82.0856C53.4708 82.8015 51.5978 83.1614 49.5857 83.1614C47.575 83.1614 45.6551 82.802 43.8225 82.084C42.0721 81.3627 40.5466 80.4042 39.2414 79.21C37.9365 78.0161 36.8932 76.6245 36.1096 75.0326C35.3304 73.3677 34.9418 71.6269 34.9418 69.8055V69.3055H34.4418H29.9798H29.4798V69.8055C29.4798 72.3487 29.9899 74.7687 31.0104 77.0605L31.0153 77.0716L31.0207 77.0823C32.1275 79.2765 33.5582 81.2192 35.3119 82.9081L35.3211 82.917L35.3307 82.9254C37.1759 84.5292 39.2949 85.8348 41.684 86.8437L41.6939 86.8479L41.7039 86.8516C44.1959 87.7805 46.8243 88.244 49.5857 88.244C52.3469 88.244 54.9326 87.7806 57.3381 86.8494L57.3451 86.8467L57.3521 86.8437C59.7433 85.8339 61.8211 84.526 63.5797 82.9169C65.4286 81.2252 66.8654 79.2761 67.8857 77.0712C68.999 74.7776 69.5563 72.3538 69.5563 69.8055V20.9385C69.5563 18.3926 69 16.0094 67.8856 13.7961C66.867 11.5127 65.4313 9.56243 63.5798 7.95069C61.8202 6.25846 59.74 4.94906 57.3451 4.021C54.938 3.00566 52.3498 2.5 49.5857 2.5C46.8202 2.5 44.1883 3.00612 41.6941 4.0198C39.2958 4.94873 37.1702 6.25907 35.3212 7.9508C33.5589 9.56322 32.1248 11.5122 31.0174 13.7921L31.0173 13.792L31.0133 13.8007C29.9899 16.0139 29.4798 18.3953 29.4798 20.9385V29.4748C29.4798 32.018 29.9899 34.3993 31.0133 36.6126L31.0169 36.6203L31.0207 36.6279C32.1275 38.822 33.5582 40.7647 35.3119 42.4537L35.3211 42.4626L35.3307 42.4709C37.1759 44.0748 39.2949 45.3804 41.684 46.3893L41.6939 46.3935L41.7039 46.3972C44.1959 47.3261 46.8243 47.7895 49.5857 47.7895C52.627 47.7895 55.4905 47.1988 58.1709 46.0149C60.4397 45.0128 62.4157 43.704 64.0943 42.0874ZM26 96.1082H25.5V96.6082V99V99.5H26H74H74.5V99V96.6082V96.1082H74H26ZM55.2095 41.6312C53.4708 42.3471 51.5978 42.707 49.5857 42.707C47.575 42.707 45.6552 42.3476 43.8227 41.6296C42.0722 40.9084 40.5466 39.9498 39.2414 38.7555C37.9353 37.5606 36.8913 36.1676 36.1074 34.5738C35.331 32.9952 34.9418 31.2977 34.9418 29.4748V20.9385C34.9418 19.1155 35.331 17.4181 36.1074 15.8395C36.8913 14.2457 37.9353 12.8527 39.2414 11.6577C40.5466 10.4635 42.0722 9.50489 43.8227 8.78365C45.6552 8.06565 47.575 7.70627 49.5857 7.70627C51.5978 7.70627 53.4708 8.06616 55.2095 8.78204C56.9616 9.50346 58.4885 10.4626 59.7948 11.6577C61.1008 12.8527 62.1448 14.2457 62.9287 15.8395C63.7051 17.4181 64.0943 19.1155 64.0943 20.9385V29.4748C64.0943 31.2977 63.7051 32.9952 62.9287 34.5738C62.1448 36.1676 61.1008 37.5606 59.7948 38.7555C58.4885 39.9507 56.9616 40.9098 55.2095 41.6312Z" fill="white" stroke="white"/>
</svg>
