<svg width="100" height="100" viewBox="0 0 100 100" fill="none" xmlns="http://www.w3.org/2000/svg">
<path d="M42.7765 40.0446H45.8291V9.54058C45.8291 7.06198 47.8384 5.05268 50.317 5.05268H70C72.4786 5.05268 74.4879 7.06198 74.4879 9.54058V48.9065C74.4879 51.3851 72.4786 53.3944 70 53.3944H60.2041V56.4471H70C74.1645 56.4471 77.5406 53.071 77.5406 48.9065V9.54058C77.5406 5.37604 74.1645 2 70 2H50.317C46.1525 2 42.7765 5.37604 42.7765 9.54058V40.0446Z" fill="white"/>
<path fill-rule="evenodd" clip-rule="evenodd" d="M29.5406 43.5529C25.376 43.5529 22 46.929 22 51.0935V90.4594C22 94.624 25.376 98 29.5406 98H49.2235C53.3881 98 56.7641 94.624 56.7641 90.4594V51.0935C56.7641 46.929 53.3881 43.5529 49.2235 43.5529H29.5406ZM29.5406 46.6056H49.2235C51.7021 46.6056 53.7114 48.6149 53.7114 51.0935V90.4594C53.7114 92.938 51.7021 94.9473 49.2235 94.9473H29.5406C27.062 94.9473 25.0527 92.938 25.0527 90.4594V51.0935C25.0527 48.6149 27.062 46.6056 29.5406 46.6056Z" fill="white"/>
</svg>
