<svg width="100" height="100" viewBox="0 0 100 100" fill="none" xmlns="http://www.w3.org/2000/svg">
<path d="M68.3689 30.2268C68.3689 29.3232 68.5411 28.5554 68.8522 27.8641C69.5944 25.9739 71.5051 24.7173 72.3676 24.3253C73.1662 23.9893 73.9891 23.8226 74.8772 23.8226C75.7809 23.8226 76.5486 23.9948 77.24 24.3059C78.0782 24.6831 78.7702 25.1645 79.3549 25.7492C79.9396 26.3339 80.421 27.0259 80.7982 27.8641C81.1093 28.5554 81.2815 29.3232 81.2815 30.2268C81.2815 31.8947 81.024 33.1951 80.622 34.2138C80.2954 34.9913 79.8925 35.7439 79.4078 36.4736C79.1546 36.8548 78.8784 37.2308 78.5781 37.6018L75.2676 41.1007C72.7956 43.0525 67.3716 47.4143 65.4514 49.2475C63.5287 50.9306 61.775 52.8061 60.19 54.8666L60.1718 54.8906C58.5313 57.0491 57.2266 59.4648 56.2355 62.1014C55.1397 64.9433 54.6504 68.0446 54.6504 71.3178V91.0245H95.0001V77.306H68.3689V71.3178C68.3689 69.4994 68.6308 68.027 69.062 66.8323C69.6501 65.4079 70.3786 64.1476 71.2394 63.0313C72.2805 61.7027 73.4337 60.4929 74.7018 59.3978L74.7149 59.3864C76.2501 58.0514 77.819 56.7496 79.4218 55.4807C81.1479 54.1142 82.8385 52.7114 84.4935 51.2723L84.5055 51.2618C86.405 49.5997 88.0957 47.7966 89.5625 45.8489C91.1766 43.799 92.4539 41.54 93.3908 39.0905C94.5082 36.3588 95.0001 33.3702 95.0001 30.2268C95.0001 27.4784 94.4534 24.8338 93.3275 22.3535C92.3241 19.9297 90.8932 17.7827 89.0218 15.979C87.2439 14.133 85.149 12.6997 82.7823 11.687C80.2928 10.5514 77.6374 10 74.8772 10C72.1041 10 69.4294 10.5562 66.9014 11.6728C64.5043 12.6932 62.3694 14.136 60.5259 15.9795C58.7194 17.7859 57.3009 19.9208 56.2379 22.3126L56.2101 22.3762L56.2011 22.3974C55.1535 24.8737 54.6504 27.5017 54.6504 30.2268V35.3697H68.3689V30.2268Z" fill="white"/>
<path d="M43.669 53.5811V57.014H27.3367V73.3464H23.9038V57.014H7.57141V53.5811H23.9038V37.2487H27.3367V53.5811H43.669Z" fill="white"/>
<path fill-rule="evenodd" clip-rule="evenodd" d="M46.2405 51.0097V59.5854H29.9081V75.9178H21.3324V59.5854H5V51.0097H21.3324V34.6773H29.9081V51.0097H46.2405ZM23.9038 53.5811H7.57141V57.014H23.9038V73.3464H27.3367V57.014H43.669V53.5811H27.3367V37.2487H23.9038V53.5811Z" fill="white"/>
</svg>
