<svg width="100" height="100" viewBox="0 0 100 100" fill="none" xmlns="http://www.w3.org/2000/svg">
<path d="M68.7736 4.15566H85.0754C87.4383 4.15566 89.3538 6.07112 89.3538 8.43396V41.0377C89.3538 43.4006 87.4383 45.316 85.0754 45.316H68.7736C66.4107 45.316 64.4953 43.4006 64.4953 41.0377V8.43396C64.4953 6.07112 66.4107 4.15566 68.7736 4.15566ZM68.7736 2.75C65.6344 2.75 63.0896 5.2948 63.0896 8.43396V41.0377C63.0896 44.1769 65.6344 46.7217 68.7736 46.7217H85.0754C88.2146 46.7217 90.7594 44.1769 90.7594 41.0377V8.43396C90.7594 5.2948 88.2146 2.75 85.0754 2.75H68.7736Z" fill="#F0C02E" stroke="#F0C02E" stroke-width="0.5"/>
<path d="M60.8727 37.4151V37.1651H60.6227H49.7548C46.6156 37.1651 44.0708 39.7099 44.0708 42.8491V75.4528C44.0708 78.592 46.6156 81.1368 49.7548 81.1368H66.0567C69.1958 81.1368 71.7406 78.592 71.7406 75.4528V50.0943V49.8443H71.4906H70.585H70.335V50.0943V75.4528C70.335 77.8157 68.4195 79.7311 66.0567 79.7311H49.7548C47.3919 79.7311 45.4765 77.8157 45.4765 75.4528V42.8491C45.4765 40.4862 47.3919 38.5708 49.7548 38.5708H60.6227H60.8727V38.3208V37.4151Z" fill="#E83B3B" stroke="#E83B3B" stroke-width="0.5"/>
<path d="M52.2217 34.6981V34.9481H52.4717H53.3773H53.6273V34.6981V25.6415C53.6273 22.5023 51.0825 19.9576 47.9434 19.9576H31.6415C28.5023 19.9576 25.9575 22.5023 25.9575 25.6415V58.2453C25.9575 61.3845 28.5023 63.9292 31.6415 63.9292H42.5094H42.7594V63.6792V62.7736V62.5236H42.5094H31.6415C29.2786 62.5236 27.3632 60.6081 27.3632 58.2453V25.6415C27.3632 23.2787 29.2786 21.3632 31.6415 21.3632H47.9434C50.3062 21.3632 52.2217 23.2787 52.2217 25.6415V34.6981Z" fill="#1470EB" stroke="#1470EB" stroke-width="0.5"/>
<path d="M23.7406 55.5283V55.2783H23.4906H14.434C11.2948 55.2783 8.75 57.8231 8.75 60.9623V93.566C8.75 96.7052 11.2948 99.25 14.434 99.25H30.7358C33.875 99.25 36.4198 96.7052 36.4198 93.566V67.3019V67.0519H36.1698H35.2642H35.0142V67.3019V93.566C35.0142 95.9289 33.0987 97.8443 30.7358 97.8443H14.434C12.0711 97.8443 10.1557 95.9289 10.1557 93.566V60.9623C10.1557 58.5994 12.0711 56.684 14.434 56.684H23.4906H23.7406V56.434V55.5283Z" fill="#229653" stroke="#229653" stroke-width="0.5"/>
</svg>
