<svg width="100" height="100" viewBox="0 0 100 100" fill="none" xmlns="http://www.w3.org/2000/svg">
<path d="M90.1627 40.8225H86.1391V62.2426H61.7604L82.4704 11H78.0917L57.5 62.2426V66.2663H86.1391V91H90.1627V40.8225Z" fill="white"/>
<path fill-rule="evenodd" clip-rule="evenodd" d="M81.1391 35.8225H95.1627V96H81.1391V71.2663H52.5V61.2756L74.7124 6H89.8841L69.1741 57.2426H81.1391V35.8225ZM86.1391 91H90.1627V40.8225H86.1391V62.2426H61.7604L82.4704 11H78.0917L57.5 62.2426V66.2663H86.1391V91Z" fill="white"/>
<path d="M42.5952 51.8788V55.2164H26.7164V71.0952H23.3788V55.2164H7.5V51.8788H23.3788V36H26.7164V51.8788H42.5952Z" fill="white"/>
<path fill-rule="evenodd" clip-rule="evenodd" d="M45.0952 49.3788V57.7164H29.2164V73.5952H20.8788V57.7164H5V49.3788H20.8788V33.5H29.2164V49.3788H45.0952ZM23.3788 51.8788H7.5V55.2164H23.3788V71.0952H26.7164V55.2164H42.5952V51.8788H26.7164V36H23.3788V51.8788Z" fill="white"/>
</svg>
