<svg width="100" height="100" viewBox="0 0 100 100" fill="none" xmlns="http://www.w3.org/2000/svg">
<path d="M51.7023 15.3938C51.7023 16.6458 52.6923 17.6664 53.9364 17.8064C67.2174 19.3 78.0503 28.8867 81.3917 41.5209L72.134 34.2211C71.235 33.5122 69.9316 33.6664 69.2227 34.5653C68.5138 35.4644 68.668 36.7678 69.567 37.4767L85.0309 49.6703L96.6526 35.0472C97.3614 34.1482 97.2073 32.8448 96.3083 32.1359C95.4093 31.427 94.1059 31.5811 93.397 32.4801L86.2677 41.4059L86.1677 41.4159C82.6643 26.3058 69.8651 14.7607 54.1242 13.1373C52.8061 13.0014 51.7023 14.0687 51.7023 15.3938Z" fill="white"/>
<path d="M47.3955 85.5807C47.3955 84.3287 46.4056 83.3081 45.1614 83.1681C31.8805 81.6745 21.0475 72.0878 17.7062 59.4536L26.9638 66.7534C27.8628 67.4623 29.1662 67.3081 29.8751 66.4091C30.584 65.5101 30.4299 64.2067 29.5309 63.4978L14.0669 51.3042L2.44526 65.9273C1.73638 66.8263 1.8905 68.1297 2.7895 68.8386C3.6885 69.5475 4.99194 69.3934 5.70082 68.4944L12.8301 59.5686L12.9302 59.5586C16.4335 74.6687 29.2327 86.2138 44.9736 87.8372C46.2917 87.9731 47.3955 86.9058 47.3955 85.5807Z" fill="white"/>
<path d="M84.5807 53.6045C83.3287 53.6045 82.308 54.5944 82.1681 55.8386C80.6744 69.1195 71.0877 79.9525 58.4536 83.2938L65.7534 74.0362C66.4623 73.1372 66.3082 71.8338 65.4092 71.1249C64.5102 70.416 63.2067 70.5701 62.4978 71.4691L50.3042 86.9331L64.9273 98.5547C65.8263 99.2636 67.1297 99.1095 67.8386 98.2105C68.5475 97.3115 68.3934 96.0081 67.4944 95.2992L58.5686 88.1699L58.5586 88.0699C73.6687 84.5665 85.2137 71.7673 86.8371 56.0264C86.9731 54.7083 85.9058 53.6045 84.5807 53.6045Z" fill="white"/>
<path d="M14.5172 48.3955C15.7692 48.3955 16.7898 47.4056 16.9297 46.1614C18.4234 32.8805 28.0101 22.0475 40.6442 18.7062L33.3444 27.9638C32.6356 28.8628 32.7897 30.1662 33.6887 30.8751C34.5877 31.584 35.8911 31.4299 36.6 30.5309L48.7936 15.0669L34.1706 3.44526C33.2716 2.73638 31.9681 2.8905 31.2592 3.7895C30.5504 4.6885 30.7045 5.99194 31.6035 6.70082L40.5293 13.8301L40.5392 13.9302C25.4291 17.4335 13.8841 30.2327 12.2607 45.9736C12.1247 47.2917 13.1921 48.3955 14.5172 48.3955Z" fill="white"/>
</svg>
