<svg width="100" height="100" viewBox="0 0 100 100" fill="none" xmlns="http://www.w3.org/2000/svg">
<path d="M35.4292 11.9704L38.7886 8.77558V31.6689C38.7886 32.405 39.3989 32.9779 40.1218 32.9779H40.9695C41.6924 32.9779 42.3027 32.405 42.3027 31.6689V8.7756L45.6621 11.9704C46.2509 12.5304 47.196 12.5304 47.7848 11.9704C48.3874 11.3973 48.3874 10.4576 47.7848 9.88447L40.5456 3L33.3065 9.88447C32.7039 10.4576 32.7039 11.3973 33.3065 11.9704C33.8953 12.5304 34.8404 12.5304 35.4292 11.9704Z" fill="white"/>
<path d="M64.1094 90.0296L60.75 93.2244V70.3311C60.75 69.595 60.1398 69.0221 59.4169 69.0221H58.5691C57.8462 69.0221 57.236 69.595 57.236 70.3311L57.236 93.2244L53.8766 90.0296C53.2877 89.4696 52.3427 89.4696 51.7539 90.0296C51.1513 90.6027 51.1513 91.5424 51.7539 92.1155L58.993 99L66.2321 92.1155C66.8347 91.5424 66.8347 90.6027 66.2321 90.0296C65.6433 89.4696 64.6983 89.4696 64.1094 90.0296Z" fill="white"/>
<path d="M36.7382 15.6219H33.8084C30.6005 15.6219 28 18.2276 28 21.442V50.4914C28 53.7057 30.6005 56.3115 33.8084 56.3115H42.8381L42.8381 52.3973H33.8084C32.758 52.3973 31.9064 51.544 31.9064 50.4914V21.442C31.9064 20.3894 32.758 19.5361 33.8084 19.5361H36.7382V15.6219Z" fill="white"/>
<path d="M44.5055 19.5361H48.304C49.3545 19.5361 50.2061 20.3894 50.2061 21.442V43.0629H54.1124V21.442C54.1124 18.2276 51.5119 15.6219 48.304 15.6219H44.5055V19.5361Z" fill="white"/>
<path d="M62.9529 86.4985V82.5843H65.8826C66.9331 82.5843 67.7847 81.731 67.7847 80.6784L67.7847 51.629C67.7847 50.5764 66.9331 49.7231 65.8827 49.7231H51.3871C50.3366 49.7231 49.485 50.5764 49.485 51.629L49.485 80.6784C49.485 81.731 50.3366 82.5843 51.3871 82.5843H55.1856V86.4985H51.3871C48.1792 86.4985 45.5787 83.8928 45.5787 80.6784L45.5787 51.629C45.5787 48.4147 48.1792 45.8089 51.3871 45.8089H65.8827C69.0906 45.8089 71.6911 48.4147 71.6911 51.629L71.6911 80.6784C71.6911 83.8928 69.0906 86.4985 65.8826 86.4985H62.9529Z" fill="white"/>
</svg>
