<svg width="100" height="100" viewBox="0 0 100 100" fill="none" xmlns="http://www.w3.org/2000/svg">
<path d="M60.7406 51.1994C63.7214 49.4219 66.1376 47.0355 67.9845 44.0452C69.9979 40.7855 71.0022 37.1433 71.0022 33.1314V23.4613C71.0022 20.5935 70.4289 17.9091 69.2792 15.414C68.2282 12.838 66.7464 10.5909 64.834 8.67724C63.0131 6.76178 60.8574 5.27722 58.3716 4.22439C55.8756 3.07372 53.1901 2.5 50.3212 2.5C47.4509 2.5 44.7202 3.07421 42.1339 4.22302C39.647 5.27579 37.4456 6.75973 35.5326 8.67272L35.5325 8.67261L35.5236 8.6819C33.7064 10.5947 32.2274 12.839 31.0847 15.4101L31.0846 15.41L31.0811 15.4183C30.0257 17.913 29.5 20.5957 29.5 23.4613V23.9613H30H34.6248H35.1248V23.4613C35.1248 21.3796 35.5317 19.4412 36.3421 17.6402L36.3422 17.6403L36.3457 17.632C37.1635 15.7239 38.2501 14.0965 39.6032 12.7433C40.9593 11.3872 42.5423 10.3007 44.3558 9.48408C46.254 8.67124 48.241 8.26496 50.3212 8.26496C52.4029 8.26496 54.3413 8.6718 56.1423 9.48224C57.9575 10.2991 59.5418 11.3862 60.899 12.7433C62.2521 14.0964 63.3387 15.7239 64.1565 17.632L64.1564 17.632L64.1601 17.6402C64.9705 19.4412 65.3774 21.3796 65.3774 23.4613V33.1314C65.3774 35.2116 64.9711 37.1986 64.1582 39.0968C63.3416 40.9103 62.2551 42.4932 60.899 43.8494C59.5418 45.2065 57.9575 46.2936 56.1423 47.1105C54.3413 47.9209 52.4029 48.3277 50.3212 48.3277H45.2759H44.7759V48.8277V53.4526V53.9526H45.2759H50.3212C52.4029 53.9526 54.3413 54.3594 56.1423 55.1698C57.9575 55.9867 59.5418 57.0738 60.899 58.4309C62.2521 59.784 63.3387 61.4115 64.1565 63.3196L64.1564 63.3196L64.1601 63.3278C64.9705 65.1288 65.3774 67.0672 65.3774 69.1489V78.6788C65.3774 80.759 64.9711 82.746 64.1583 84.6442C63.3416 86.4577 62.2551 88.0407 60.899 89.3968C59.5418 90.754 57.9575 91.841 56.1423 92.6579C54.3413 93.4683 52.4029 93.8752 50.3212 93.8752C48.2411 93.8752 46.2541 93.4689 44.356 92.6561C42.5424 91.8395 40.9594 90.753 39.6032 89.3968C38.247 88.0406 37.1606 86.4577 36.3439 84.6441C35.5311 82.746 35.1248 80.759 35.1248 78.6788V78.1788H34.6248H30H29.5V78.6788C29.5 81.5445 30.0257 84.2715 31.0786 86.8558L31.0829 86.8663L31.0876 86.8767C32.2308 89.3536 33.7094 91.5485 35.5236 93.4582L35.5325 93.4675L35.5418 93.4764C37.4515 95.2906 39.6464 96.7692 42.1233 97.9124L42.1337 97.9171L42.1442 97.9214C44.7285 98.9743 47.4555 99.5 50.3212 99.5C53.1868 99.5 55.8695 98.9743 58.3642 97.9189L58.3716 97.9157L58.3789 97.9124C60.8581 96.7681 63.0099 95.287 64.8295 93.4674C66.7425 91.5544 68.2264 89.353 69.2792 86.8661C70.428 84.2797 71.0022 81.5491 71.0022 78.6788V69.1489C71.0022 65.137 69.9979 61.4948 67.9845 58.2351C66.1381 55.2456 63.722 52.8982 60.7406 51.1994Z" fill="white" stroke="white"/>
</svg>
