<svg width="256" height="256" viewBox="0 0 256 256" fill="none" xmlns="http://www.w3.org/2000/svg">
<path d="M40.5214 90.2911L38.3676 90.8682L37.5395 99.2859L32.5962 92.4147L30.4436 92.9915L34.5595 108.352L36.9551 107.71L34.8274 99.7693L39.3648 106.079L40.1209 98.3789L42.2417 106.294L44.6373 105.652L40.5214 90.2911Z" fill="#171717"/>
<path d="M46.8907 105.048L49.2864 104.406L45.1705 89.0454L42.7749 89.6873L46.8907 105.048Z" fill="#171717"/>
<path d="M55.2364 86.3482L52.8408 86.9901L54.9697 94.9354L49.8598 87.7889L47.7263 88.3606L51.8422 103.721L54.2378 103.079L52.1089 95.1341L57.2188 102.281L59.3523 101.709L55.2364 86.3482Z" fill="#171717"/>
<path d="M61.8086 101.051L64.2042 100.409L60.0884 85.0482L57.6927 85.6901L61.8086 101.051Z" fill="#171717"/>
<path d="M72.4162 81.7449L70.2623 82.3221L69.4342 90.7397L64.4909 83.8685L62.3383 84.4453L66.4542 99.806L68.8499 99.1641L66.7221 91.2231L71.2596 97.5328L72.0157 89.8328L74.1364 97.7475L76.5321 97.1056L72.4162 81.7449Z" fill="#171717"/>
<path fill-rule="evenodd" clip-rule="evenodd" d="M83.1348 90.747L85.2633 94.7661L87.7243 94.1067L80.0856 79.6899L77.557 80.3675L78.1501 96.6721L80.6111 96.0127L80.4449 91.4678L83.1348 90.747ZM80.2152 85.2308L80.3473 88.9502L81.9605 88.518L80.2152 85.2308Z" fill="#171717"/>
<path d="M87.419 77.7249L90.899 90.7124L95.3664 89.5153L96.0023 91.8886L89.1393 93.7275L85.0234 78.3668L87.419 77.7249Z" fill="#171717"/>
<path d="M26.6954 99.4837L14.7482 102.685C9.0925 104.2 5.73619 110.014 7.25161 115.669L31.0323 204.42C32.5477 210.076 38.361 213.432 44.0167 211.917L241.999 158.867C247.655 157.352 251.011 151.539 249.496 145.883L225.715 57.1323C224.199 51.4766 218.386 48.1203 212.73 49.6357L98.3786 80.2762L99.7506 85.3964L214.102 54.7559C216.93 53.9982 219.837 55.6764 220.595 58.5042L244.375 147.255C245.133 150.083 243.455 152.989 240.627 153.747L42.6447 206.796C39.8169 207.554 36.9102 205.876 36.1525 203.048L12.3718 114.297C11.6141 111.47 13.2923 108.563 16.1201 107.805L28.0673 104.604L26.6954 99.4837Z" fill="#171717"/>
<path fill-rule="evenodd" clip-rule="evenodd" d="M59.5804 144.36L59.5631 144.352L59.5458 144.345C58.109 143.751 56.6986 143.15 55.3145 142.543C54.1211 141.942 53.0172 141.28 51.9989 140.56C51.1074 139.88 50.3313 139.115 49.6624 138.264C49.103 137.521 48.6174 136.536 48.2668 135.227C48.0685 134.487 48.0411 133.807 48.153 133.151C48.2838 132.383 48.5356 131.701 48.904 131.078C49.2678 130.462 49.7447 129.907 50.3618 129.406C50.9807 128.931 51.6646 128.594 52.4398 128.386C53.2256 128.176 53.9476 128.14 54.6376 128.247C55.4352 128.37 56.1362 128.615 56.7672 128.971C57.3978 129.326 57.9572 129.792 58.4542 130.391C58.8791 130.903 59.1955 131.506 59.3937 132.246L60.3084 135.659L69.7922 133.118L68.8776 129.704C68.3334 127.674 67.3989 125.837 66.0656 124.243C64.8302 122.655 63.3337 121.367 61.5828 120.424C59.8914 119.427 58.0483 118.799 56.0859 118.534C54.019 118.202 51.9434 118.328 49.8921 118.878C47.8323 119.43 45.9558 120.366 44.2947 121.683C42.709 122.905 41.3983 124.385 40.3808 126.106C39.3867 127.787 38.741 129.64 38.4124 131.623L38.4072 131.655L38.4025 131.686C38.1041 133.716 38.2431 135.754 38.7829 137.768C39.4069 140.097 40.3382 142.198 41.6449 143.985L41.6764 144.028L41.7093 144.071C42.9381 145.649 44.3276 147.041 45.8788 148.233L45.9156 148.261L45.9531 148.289C47.4679 149.391 49.075 150.371 50.7715 151.228L50.8426 151.264L50.9153 151.297C52.5115 152.015 54.1014 152.707 55.6849 153.372C57.1692 153.996 58.6055 154.657 59.9944 155.355L60.069 155.392L60.1452 155.426C61.397 155.983 62.5166 156.653 63.5154 157.432L63.5843 157.486L63.6558 157.536C64.6066 158.205 65.4212 159.011 66.1094 159.969L66.1431 160.016L66.1783 160.061C66.8226 160.898 67.362 161.984 67.7397 163.393C67.9352 164.123 67.9771 164.842 67.8691 165.581C67.7368 166.335 67.4869 167.007 67.1237 167.621C66.755 168.245 66.2703 168.807 65.6411 169.313C65.0969 169.75 64.4541 170.081 63.6683 170.291C62.8931 170.499 62.1321 170.549 61.3588 170.447C60.5741 170.322 59.8831 170.079 59.2604 169.728C58.6386 169.378 58.0861 168.921 57.5944 168.334C57.1316 167.748 56.8082 167.104 56.6128 166.375L55.6981 162.961L46.2143 165.502L47.1289 168.916C47.6689 170.931 48.5697 172.774 49.832 174.414L49.8818 174.479L49.9345 174.541C51.1882 176.023 52.6405 177.266 54.2868 178.25L54.3645 178.297L54.4446 178.339C56.1393 179.238 57.9601 179.84 59.8861 180.157L59.9643 180.17L60.0431 180.179C62.107 180.423 64.1655 180.264 66.1949 179.721C68.2236 179.177 70.0755 178.288 71.7081 177.035L71.7526 177.001L71.7959 176.965C73.3191 175.718 74.5886 174.269 75.5664 172.615C76.5838 170.894 77.2461 169.037 77.54 167.066C77.8807 164.982 77.7721 162.899 77.2236 160.852C76.5693 158.41 75.5805 156.212 74.1937 154.337C72.9095 152.57 71.4101 151.049 69.6918 149.801C68.1149 148.564 66.4024 147.524 64.5611 146.681C62.9155 145.847 61.2552 145.073 59.5804 144.36Z" fill="#171717"/>
<path fill-rule="evenodd" clip-rule="evenodd" d="M108.947 167.011L109.026 167.024L109.105 167.033C111.168 167.277 113.227 167.118 115.256 166.575C117.285 166.031 119.137 165.142 120.77 163.889L120.814 163.855L120.857 163.819C122.381 162.572 123.65 161.123 124.628 159.469C125.645 157.748 126.307 155.891 126.601 153.92C126.942 151.836 126.834 149.754 126.285 147.706L117.939 116.558C117.395 114.528 116.46 112.691 115.127 111.096C113.892 109.509 112.395 108.221 110.644 107.278C108.953 106.281 107.11 105.653 105.147 105.388C103.08 105.056 101.005 105.182 98.9535 105.732C96.8937 106.284 95.0172 107.22 93.3561 108.537C91.7704 109.759 90.4597 111.239 89.4422 112.96C88.4481 114.641 87.8024 116.494 87.4738 118.477L87.4686 118.509L87.4639 118.54C87.1655 120.57 87.3045 122.608 87.8443 124.622L96.1903 155.77C96.7303 157.785 97.6311 159.628 98.8934 161.268L98.9431 161.333L98.9959 161.395C100.25 162.877 101.702 164.12 103.348 165.104L103.426 165.151L103.506 165.193C105.201 166.092 107.021 166.694 108.947 167.011ZM112.73 157.146C111.955 157.353 111.193 157.403 110.42 157.301C109.635 157.176 108.945 156.933 108.322 156.582C107.7 156.232 107.148 155.775 106.656 155.188C106.193 154.602 105.87 153.958 105.674 153.229L97.3282 122.081C97.1299 121.341 97.1025 120.661 97.2143 120.005C97.3452 119.238 97.597 118.555 97.9654 117.932C98.3292 117.316 98.8061 116.761 99.4232 116.26C100.042 115.786 100.726 115.448 101.501 115.24C102.287 115.03 103.009 114.995 103.699 115.101C104.497 115.224 105.198 115.469 105.829 115.825C106.459 116.18 107.019 116.646 107.516 117.245C107.941 117.757 108.257 118.36 108.455 119.1L116.801 150.247C116.997 150.977 117.039 151.696 116.931 152.435C116.798 153.189 116.548 153.861 116.185 154.475C115.816 155.099 115.332 155.661 114.703 156.167C114.158 156.604 113.515 156.935 112.73 157.146Z" fill="#171717"/>
<path d="M142.496 94.4031L156.082 145.107L173.311 140.49L175.838 149.919L149.124 157.077L133.012 96.9443L142.496 94.4031Z" fill="#171717"/>
<path fill-rule="evenodd" clip-rule="evenodd" d="M200.466 142.488L200.544 142.501L200.623 142.511C202.687 142.755 204.745 142.596 206.775 142.052C208.803 141.509 210.655 140.62 212.288 139.367L212.332 139.333L212.376 139.297C213.899 138.049 215.168 136.6 216.146 134.947C217.164 133.226 217.826 131.369 218.12 129.398C218.46 127.313 218.352 125.231 217.803 123.184L209.457 92.0362C208.913 90.0054 207.979 88.1692 206.645 86.5745C205.41 84.9865 203.914 83.6992 202.163 82.756C200.471 81.7589 198.628 81.131 196.666 80.8653C194.599 80.5341 192.523 80.6602 190.472 81.2098C188.412 81.7617 186.536 82.6979 184.875 84.0148C183.289 85.2368 181.978 86.7165 180.961 88.4374C179.966 90.1187 179.321 91.9713 178.992 93.9545L178.987 93.9863L178.982 94.0182C178.684 96.048 178.823 98.0854 179.363 100.1L187.709 131.248C188.249 133.263 189.149 135.106 190.412 136.746L190.462 136.811L190.514 136.873C191.768 138.355 193.22 139.598 194.867 140.582L194.944 140.629L195.024 140.671C196.719 141.57 198.54 142.172 200.466 142.488ZM189.484 93.4095C189.848 92.7942 190.324 92.2383 190.942 91.7378C191.561 91.2632 192.244 90.9256 193.02 90.7179C193.805 90.5073 194.527 90.4723 195.217 90.5789C196.015 90.7022 196.716 90.9469 197.347 91.3026C197.978 91.658 198.537 92.1233 199.034 92.7223C199.459 93.2346 199.775 93.8375 199.974 94.5773L208.32 125.725C208.515 126.455 208.557 127.174 208.449 127.912C208.317 128.667 208.067 129.339 207.703 129.953C207.335 130.577 206.85 131.139 206.221 131.645C205.677 132.082 205.034 132.413 204.248 132.623C203.473 132.831 202.712 132.88 201.939 132.779C201.154 132.654 200.463 132.411 199.84 132.06C199.218 131.71 198.666 131.253 198.174 130.666C197.711 130.08 197.388 129.436 197.193 128.707L188.847 97.5588C188.648 96.819 188.621 96.1387 188.733 95.4825C188.864 94.7153 189.115 94.0326 189.484 93.4095Z" fill="#171717"/>
</svg>
