<svg width="100" height="100" viewBox="0 0 100 100" fill="none" xmlns="http://www.w3.org/2000/svg">
<path fill-rule="evenodd" clip-rule="evenodd" d="M2 51C2.00001 24.4903 23.4903 2.99999 50 3C76.5097 3 98 24.4903 98 51C98 77.5097 76.5097 99 50 99C23.4903 99 2 77.5097 2 51ZM8 51C8.00001 27.804 26.804 8.99999 50 9C62.1003 9 73.0054 14.117 80.6696 22.3052L17.6317 77.7654C11.6156 70.4981 8 61.1713 8 51ZM83.566 25.7507L20.6826 81.0748C28.2511 88.4539 38.5947 93 50 93C73.196 93 92 74.196 92 51C92 41.5227 88.861 32.7786 83.566 25.7507Z" fill="white"/>
</svg>
