<svg width="100" height="100" viewBox="0 0 100 100" fill="none" xmlns="http://www.w3.org/2000/svg">
<path d="M48.1767 3C23.3115 3.92872 3.28144 23.7728 2.04541 48.5679H8.13208C9.35686 27.1319 26.6688 10.0056 48.1767 9.0852V3Z" fill="#F0C02E"/>
<path d="M8.08005 52.216C8.70603 74.217 26.2636 91.977 48.1766 92.9148V99C22.9063 98.0561 2.6299 77.5754 2 52.216H8.08005Z" fill="#1470EB"/>
<path d="M51.8232 92.9147C73.7363 91.977 91.2939 74.217 91.9198 52.216H97.9999C97.37 77.5754 77.0936 98.0561 51.8232 98.9999V92.9147Z" fill="#E83B3B"/>
<path d="M51.8232 9.0852V3C76.6884 3.92872 96.7185 23.7728 97.9545 48.5679H91.8678C90.6431 27.1319 73.3311 10.0056 51.8232 9.0852Z" fill="#229653"/>
</svg>
