<svg width="100" height="100" viewBox="0 0 100 100" fill="none" xmlns="http://www.w3.org/2000/svg">
<path d="M50.4405 38.0242H37.8587L39.4953 8.29295H68.0617H68.5617V7.79295V3V2.5H68.0617H39.304H35.7797H34.652H34.1793L34.1528 2.97197L31.8973 43.1482L31.8676 43.6762H32.3965H35.0749H37.0485H50.4405C52.5348 43.6762 54.4851 44.0855 56.297 44.9009C58.1233 45.7227 59.7172 46.8163 61.0826 48.1817C62.4439 49.5431 63.5371 51.1804 64.3598 53.1L64.3597 53.1001L64.3634 53.1083C65.1788 54.9202 65.5881 56.8704 65.5881 58.9648V78.5595C65.5881 80.6522 65.1794 82.6514 64.3616 84.561C63.54 86.3856 62.4469 87.9781 61.0826 89.3425C59.7172 90.7079 58.1233 91.8015 56.297 92.6233C54.4851 93.4387 52.5348 93.848 50.4405 93.848C48.3477 93.848 46.3485 93.4393 44.4388 92.6214C42.6143 91.7998 41.0218 90.7068 39.6575 89.3425C38.2931 87.9781 37.2001 86.3855 36.3785 84.561C35.5607 82.6514 35.152 80.6522 35.152 78.5595V78.0595H34.652H30H29.5V78.5595C29.5 81.4416 30.0287 84.1843 31.0876 86.7834L31.0919 86.7939L31.0967 86.8042C32.2465 89.2955 33.7335 91.5029 35.5582 93.4237L35.567 93.433L35.5763 93.4418C37.4971 95.2665 39.7046 96.7535 42.1958 97.9033L42.2061 97.9081L42.2166 97.9124C44.8157 98.9713 47.5584 99.5 50.4405 99.5C53.3226 99.5 56.0207 98.9713 58.5296 97.9098L58.537 97.9067L58.5443 97.9033C61.0378 96.7525 63.202 95.2628 65.032 93.4329C66.956 91.5089 68.4484 89.2948 69.5072 86.7936C70.6626 84.1925 71.2401 81.4462 71.2401 78.5595V58.9648C71.2401 56.0805 70.6635 53.3806 69.5072 50.8712C68.4501 48.2806 66.9589 46.0653 65.0321 44.2322C63.2017 42.3081 61.0352 40.8166 58.5371 39.7586C56.0269 38.6013 53.326 38.0242 50.4405 38.0242Z" fill="white" stroke="white"/>
</svg>
