<svg width="52" height="19" viewBox="0 0 52 19" fill="none" xmlns="http://www.w3.org/2000/svg">
<path fill-rule="evenodd" clip-rule="evenodd" d="M4.168 0.0960002H0V18.32H2.792V12.272H4.37166L4.40724 12.2695C4.97721 12.2287 5.51924 12.0852 6.02393 11.8341C6.52018 11.5949 6.95964 11.2808 7.33265 10.8895C7.72399 10.4957 8.02584 10.038 8.23416 9.52309C8.46478 8.99292 8.576 8.42812 8.576 7.84V4.528C8.576 3.93388 8.46256 3.36104 8.23297 2.81836C8.00808 2.28682 7.68833 1.81789 7.27529 1.42072C6.8835 1.01327 6.42187 0.696582 5.89913 0.472191C5.35927 0.217179 4.77713 0.0960002 4.168 0.0960002ZM5.28495 9.00568L5.2967 8.99308L5.30889 8.9809C5.46012 8.82967 5.57003 8.66524 5.64636 8.48395L5.65594 8.46158C5.73914 8.27669 5.784 8.07337 5.784 7.84V4.528C5.784 4.31702 5.74183 4.12093 5.65608 3.93036C5.5601 3.71707 5.43631 3.53852 5.28489 3.38711C5.13348 3.23569 4.95493 3.1119 4.74164 3.01592C4.55691 2.9328 4.35355 2.888 4.12 2.888H2.792V9.48H4.168C4.40155 9.48 4.60491 9.4352 4.78964 9.35208C4.99698 9.25877 5.15764 9.14207 5.28495 9.00568Z" fill="white"/>
<path fill-rule="evenodd" clip-rule="evenodd" d="M19.7237 13.232L20.8517 18.32H23.7165L19.6727 0.0960002H16.7238L12.68 18.32H15.5448L16.6728 13.232H19.7237ZM17.2855 10.44L18.1982 6.34293L19.111 10.44H17.2855Z" fill="white"/>
<path d="M33.7024 7.97113L33.7003 7.96951L33.6962 7.96619L33.694 7.96449C33.3384 7.68622 32.9907 7.40811 32.6507 7.13019C32.3623 6.86774 32.1032 6.59439 31.8724 6.31047C31.673 6.04689 31.5121 5.76727 31.3877 5.47037C31.2844 5.20954 31.2217 4.88501 31.2217 4.48C31.2217 4.24645 31.2665 4.04309 31.3496 3.85836C31.4456 3.64507 31.5694 3.46652 31.7208 3.31511C31.8703 3.16564 32.0461 3.04312 32.2557 2.94768C32.4639 2.85972 32.6791 2.816 32.9097 2.816C33.1432 2.816 33.3466 2.8608 33.5313 2.94392C33.7446 3.0399 33.9232 3.16369 34.0746 3.31511C34.226 3.46652 34.3498 3.64507 34.4458 3.85837C34.5289 4.04309 34.5737 4.24645 34.5737 4.48V5.48H37.3657V4.48C37.3657 3.87016 37.2443 3.2855 36.9952 2.73782C36.7725 2.19871 36.4552 1.72332 36.041 1.32477C35.6475 0.915544 35.1836 0.59787 34.6581 0.373307C34.1086 0.122308 33.5218 0 32.9097 0C32.295 0 31.7032 0.123252 31.1438 0.370542C30.6123 0.596626 30.1393 0.916135 29.7306 1.32489C29.3316 1.7239 29.0166 2.19677 28.7797 2.7298L28.7727 2.74637C28.5413 3.29325 28.4297 3.87466 28.4297 4.48C28.4297 5.18276 28.5312 5.84303 28.7587 6.44266L28.764 6.45661L28.7697 6.47035C28.9922 7.00813 29.2728 7.50603 29.6134 7.96021L29.6296 7.98071C29.9676 8.40758 30.3404 8.80688 30.7474 9.17849L30.7641 9.19374L30.7815 9.20821C31.1718 9.53346 31.5623 9.85075 31.953 10.16C32.3197 10.4504 32.6703 10.7477 33.005 11.0519L33.0226 11.0679L33.0408 11.083C33.3488 11.3374 33.6119 11.6146 33.8335 11.9144L33.8481 11.9342L33.8637 11.9532C34.0808 12.2185 34.2498 12.5137 34.3719 12.8433L34.3775 12.8584L34.3836 12.8732C34.5033 13.1672 34.5737 13.5242 34.5737 13.96C34.5737 14.1905 34.53 14.4058 34.442 14.6139C34.3466 14.8235 34.2241 14.9994 34.0746 15.1489C33.9232 15.3003 33.7446 15.4241 33.5313 15.5201C33.3466 15.6032 33.1432 15.648 32.9097 15.648C32.6792 15.648 32.4639 15.6043 32.2558 15.5163C32.0462 15.4209 31.8703 15.2984 31.7208 15.1489C31.5713 14.9994 31.4488 14.8235 31.3534 14.6139C31.2654 14.4058 31.2217 14.1905 31.2217 13.96V12.96H28.4297V13.96C28.4297 14.5655 28.5414 15.1501 28.7676 15.7054L28.7762 15.7264L28.7857 15.7471C29.0218 16.2585 29.3305 16.7185 29.7127 17.1208L29.7303 17.1393L29.7489 17.157C30.1512 17.5392 30.6112 17.8479 31.1227 18.084L31.1433 18.0935L31.1644 18.1021C31.7197 18.3283 32.3042 18.44 32.9097 18.44C33.515 18.44 34.0964 18.3283 34.6433 18.097L34.6581 18.0907L34.6728 18.0839C35.1888 17.8458 35.648 17.5319 36.0408 17.1391C36.4496 16.7303 36.7691 16.2573 36.9952 15.7258C37.2425 15.1664 37.3657 14.5746 37.3657 13.96C37.3657 13.223 37.2555 12.5307 37.0123 11.9002C36.7886 11.305 36.487 10.7628 36.1043 10.2806C35.7595 9.81156 35.3621 9.38734 34.9139 9.00861C34.5186 8.64689 34.1148 8.30103 33.7024 7.97113Z" fill="white"/>
<path d="M48.3274 7.97113L48.3253 7.96951L48.3212 7.96619L48.319 7.9645C47.9634 7.68623 47.6157 7.40812 47.2757 7.1302C46.9873 6.86777 46.7283 6.59444 46.4974 6.31053C46.298 6.0469 46.137 5.76722 46.0126 5.47025C45.9094 5.20945 45.8467 4.88495 45.8467 4.48C45.8467 4.24645 45.8915 4.04309 45.9746 3.85836C46.0706 3.64507 46.1944 3.46652 46.3458 3.31511C46.4952 3.16566 46.6711 3.04314 46.8807 2.94771C47.0888 2.85973 47.3041 2.816 47.5347 2.816C47.7682 2.816 47.9716 2.8608 48.1563 2.94392C48.3696 3.0399 48.5482 3.16369 48.6996 3.31511C48.851 3.46652 48.9748 3.64507 49.0708 3.85837C49.1539 4.04309 49.1987 4.24645 49.1987 4.48V5.48H51.9907V4.48C51.9907 3.87016 51.8693 3.2855 51.6202 2.73782C51.3975 2.19871 51.0802 1.72332 50.666 1.32477C50.2725 0.915544 49.8086 0.59787 49.2831 0.373307C48.7336 0.122308 48.1468 0 47.5347 0C46.92 0 46.3282 0.123254 45.7688 0.370549C45.2373 0.596633 44.7643 0.91614 44.3556 1.32489C43.9566 1.7239 43.6416 2.19677 43.4047 2.7298L43.3977 2.74636C43.1663 3.29325 43.0547 3.87466 43.0547 4.48C43.0547 5.18276 43.1563 5.84312 43.3837 6.44275L43.389 6.45656L43.3947 6.47035C43.6172 7.00814 43.8978 7.50603 44.2384 7.9602L44.2547 7.98071C44.5926 8.40758 44.9654 8.80687 45.3724 9.17848L45.3891 9.19376L45.4065 9.20822C45.7968 9.53346 46.1873 9.85076 46.578 10.16C46.9447 10.4504 47.2953 10.7477 47.63 11.0519L47.6476 11.0679L47.6658 11.083C47.9738 11.3374 48.2369 11.6146 48.4585 11.9144L48.4731 11.9342L48.4887 11.9532C48.7058 12.2185 48.8749 12.5138 48.997 12.8435L49.0025 12.8584L49.0086 12.8733C49.1284 13.1673 49.1987 13.5242 49.1987 13.96C49.1987 14.1905 49.155 14.4058 49.067 14.6139C48.9716 14.8235 48.8491 14.9994 48.6996 15.1489C48.5482 15.3003 48.3696 15.4241 48.1563 15.5201C47.9716 15.6032 47.7682 15.648 47.5347 15.648C47.3041 15.648 47.0889 15.6043 46.8807 15.5163C46.6711 15.4209 46.4953 15.2984 46.3458 15.1489C46.1963 14.9994 46.0738 14.8235 45.9784 14.6139C45.8904 14.4058 45.8467 14.1905 45.8467 13.96V12.96H43.0547V13.96C43.0547 14.5655 43.1664 15.15 43.3926 15.7053L43.4012 15.7264L43.4107 15.7471C43.6468 16.2585 43.9555 16.7185 44.3377 17.1208L44.3554 17.1393L44.3739 17.157C44.7762 17.5392 45.2362 17.8479 45.7477 18.084L45.7683 18.0935L45.7894 18.1021C46.3447 18.3283 46.9292 18.44 47.5347 18.44C48.14 18.44 48.7214 18.3283 49.2683 18.097L49.2831 18.0907L49.2978 18.0839C49.8138 17.8458 50.273 17.5319 50.6658 17.1391C51.0746 16.7303 51.3941 16.2573 51.6202 15.7258C51.8675 15.1664 51.9907 14.5746 51.9907 13.96C51.9907 13.223 51.8805 12.5307 51.6373 11.9002C51.4136 11.305 51.112 10.7628 50.7293 10.2806C50.3845 9.81156 49.9871 9.38734 49.5389 9.00861C49.1436 8.64689 48.7398 8.30103 48.3274 7.97113Z" fill="white"/>
</svg>
