<svg width="100" height="100" viewBox="0 0 100 100" fill="none" xmlns="http://www.w3.org/2000/svg">
<path d="M75.3687 3V28.6843C75.3687 30.1775 74.1582 31.388 72.6651 31.388C71.1719 31.388 69.9614 30.1775 69.9614 28.6843V12.6168L35.8901 45.699C32.6763 48.8195 32.6007 53.9544 35.7212 57.1682L41.6957 63.3214C42.7251 64.3816 42.7126 66.0717 41.6678 67.1166C40.6009 68.1834 38.8674 68.1706 37.8164 67.0882L31.8418 60.935C26.641 55.5787 26.767 47.0204 32.1233 41.8196L66.4915 8.44919C66.3004 8.42154 66.1049 8.40723 65.906 8.40723H49.6843C48.1912 8.40723 46.9807 7.19678 46.9807 5.70361C46.9807 4.21045 48.1912 3 49.6843 3H75.3687Z" fill="white"/>
<path d="M24 99L24 73.3157C24 71.8225 25.2104 70.612 26.7036 70.612C28.1968 70.612 29.4072 71.8225 29.4072 73.3157L29.4072 89.3832L63.4786 56.301C66.6924 53.1805 66.768 48.0456 63.6475 44.8318L57.6729 38.6786C56.6436 37.6184 56.656 35.9283 57.7009 34.8834C58.7677 33.8166 60.5013 33.8294 61.5523 34.9118L67.5269 41.065C72.7277 46.4213 72.6016 54.9796 67.2453 60.1804L32.8771 93.5508C33.0683 93.5785 33.2638 93.5928 33.4627 93.5928H49.6843C51.1775 93.5928 52.388 94.8032 52.388 96.2964C52.388 97.7896 51.1775 99 49.6843 99H24Z" fill="white"/>
</svg>
