<svg width="100" height="100" viewBox="0 0 100 100" fill="none" xmlns="http://www.w3.org/2000/svg">
<g clip-path="url(#clip0)">
<path d="M70.5163 20.3134C70.5163 17.8483 69.9416 15.5416 68.7922 13.401C67.7414 11.1929 66.2616 9.30958 64.3564 7.75475C62.5452 6.12165 60.4055 4.85947 57.944 3.96529C55.4704 2.987 52.8113 2.5 49.9715 2.5C47.1304 2.5 44.4263 2.98742 41.8628 3.9642C39.3977 4.85928 37.2114 6.12242 35.3084 7.75482C33.4944 9.31077 32.0166 11.1931 30.8748 13.3968L30.8747 13.3968L30.8703 13.4057C29.8143 15.5466 29.2875 17.8514 29.2875 20.3134V67.4776C29.2875 69.9396 29.8143 72.2815 30.8671 74.4981L30.8724 74.5094L30.8784 74.5205C32.0194 76.6411 33.4936 78.5172 35.2988 80.1472L35.3082 80.1557L35.318 80.1637C37.2169 81.7111 39.3966 82.97 41.853 83.9425L41.8625 83.9462L41.8721 83.9496C44.4333 84.8447 47.1341 85.291 49.9715 85.291C52.8087 85.291 55.4653 84.8447 57.9373 83.9476L57.944 83.9451L57.9508 83.9425C60.4091 82.9692 62.5463 81.7081 64.3562 80.1556C66.259 78.5234 67.7398 76.6411 68.7921 74.5092C69.9405 72.2912 70.5163 69.9452 70.5163 67.4776V50.8806C70.5163 48.4155 69.9416 46.1087 68.7922 43.9682C67.7414 41.7601 66.2616 39.8767 64.3564 38.3219C62.5451 36.6888 60.4055 35.4266 57.944 34.5324C55.4704 33.5542 52.8113 33.0672 49.9715 33.0672C46.7538 33.0672 43.7628 33.676 41.0048 34.8986C38.6585 35.871 36.6155 37.1431 34.8811 38.7172V20.3134C34.8811 18.562 35.2798 16.9304 36.0767 15.4114C36.8819 13.8765 37.9553 12.5332 39.3002 11.3795C40.6446 10.2263 42.2172 9.29973 44.023 8.60223C45.9139 7.90762 47.8957 7.5597 49.9715 7.5597C52.0488 7.5597 53.9826 7.90811 55.777 8.60078C57.5845 9.29845 59.1583 10.2255 60.5036 11.3795C61.8485 12.5332 62.9219 13.8765 63.7271 15.4114C64.524 16.9304 64.9227 18.562 64.9227 20.3134V20.8134H65.4227H70.0163H70.5163V20.3134ZM63.7226 45.9697L63.7225 45.9698L63.7271 45.9785C64.524 47.4976 64.9227 49.1291 64.9227 50.8806V67.4776C64.9227 69.2276 64.5246 70.9011 63.7248 72.5035C62.9199 74.0365 61.8472 75.3784 60.5036 76.5309C59.1583 77.6849 57.5845 78.612 55.777 79.3097C53.9826 80.0023 52.0488 80.3507 49.9715 80.3507C47.8957 80.3507 45.9138 80.0028 44.023 79.3082C42.2171 78.6107 40.6446 77.6841 39.3002 76.5309C37.9565 75.3783 36.8839 74.0364 36.0789 72.5033C35.2792 70.901 34.8811 69.2276 34.8811 67.4776V50.8806C34.8811 49.1291 35.2798 47.4976 36.0767 45.9785L36.0768 45.9786L36.0812 45.9697C36.8872 44.3565 37.9598 42.9771 39.3002 41.8273C40.6446 40.6741 42.2172 39.7474 44.0232 39.0499C45.914 38.3554 47.8957 38.0075 49.9715 38.0075C52.0488 38.0075 53.9826 38.3559 55.777 39.0485C57.5845 39.7462 59.1583 40.6733 60.5036 41.8273C61.844 42.9771 62.9166 44.3565 63.7226 45.9697ZM26 95.5H25.5V96V99.3918V99.8918H26H74H74.5V99.3918V96V95.5H74H26Z" fill="white" stroke="white"/>
</g>
<defs>
<clipPath id="clip0">
<rect width="100" height="100" fill="white"/>
</clipPath>
</defs>
</svg>
