<svg width="50" height="18" viewBox="0 0 50 18" fill="none" xmlns="http://www.w3.org/2000/svg">
<path d="M6.37681 8.79361C5.98808 8.44052 5.59095 8.10293 5.18541 7.7809L4.15109 6.96001C3.86752 6.70383 3.61278 6.43703 3.38576 6.15989C3.18969 5.90257 3.03138 5.6296 2.90904 5.33976C2.8075 5.08519 2.74583 4.76844 2.74583 4.37313C2.74583 4.14514 2.78989 3.94664 2.87163 3.76634C2.97227 3.28092 3.50764 2.97146 3.76274 2.87741C3.96743 2.79155 4.17915 2.74888 4.40582 2.74888C4.63551 2.74888 4.83549 2.79261 5.01714 2.87375C5.2269 2.96744 5.40248 3.08827 5.55138 3.23606C5.70028 3.38386 5.82202 3.55814 5.91641 3.76634C5.99815 3.94664 6.04221 4.14514 6.04221 4.37313V5.3493H8.78804V4.37313C8.78804 3.77778 8.66864 3.20707 8.42369 2.67249C8.20463 2.14624 7.89267 1.68221 7.48533 1.29319C7.09836 0.893717 6.64209 0.583601 6.12522 0.364382C5.58491 0.119401 5.00786 0 4.40582 0C3.80131 0 3.21934 0.120316 2.66916 0.361695C2.14649 0.582381 1.68136 0.894266 1.27935 1.29329C0.886927 1.6828 0.577349 2.14447 0.344391 2.66474L0.340799 2.67276L0.337353 2.68084C0.10981 3.21468 0 3.78222 0 4.37313C0 5.05913 0.0998796 5.70364 0.323555 6.28896L0.328751 6.30255L0.334354 6.31599C0.553241 6.84104 0.829464 7.32684 1.16439 7.7701L1.17211 7.78031L1.18008 7.79031C1.51243 8.207 1.87908 8.59676 2.27935 8.95951L2.29578 8.9744L2.31287 8.98854C2.6967 9.30602 3.08072 9.61573 3.46494 9.91765C3.82557 10.201 4.17039 10.4912 4.49954 10.7883L4.51678 10.8038L4.53474 10.8185C4.8376 11.0669 5.09639 11.3375 5.3143 11.6301L5.32869 11.6494L5.34402 11.668C5.55748 11.927 5.72374 12.2151 5.8438 12.5369L5.8493 12.5516L5.85527 12.5661C5.97307 12.8531 6.04221 13.2014 6.04221 13.6269C6.04221 13.8519 5.99922 14.062 5.91271 14.2652C5.77499 14.52 5.40306 15.0536 5.01714 15.1497C4.83549 15.2308 4.63551 15.2745 4.40582 15.2745C4.17915 15.2745 3.96742 15.2319 3.76274 15.146C3.55658 15.0528 3.38362 14.9332 3.23666 14.7874C3.0897 14.6415 2.96919 14.4698 2.87533 14.2652C2.78882 14.062 2.74583 13.8519 2.74583 13.6269V12.6507H0V13.6269C0 14.218 0.109826 14.7885 0.332313 15.3305L0.340762 15.3511L0.350146 15.3713C0.582304 15.8706 0.885919 16.3195 1.26176 16.7122L1.27913 16.7304L1.29741 16.7476C1.69303 17.1207 2.14534 17.422 2.64835 17.6525L2.66868 17.6618L2.68942 17.6702C3.23553 17.891 3.81032 18 4.40582 18C5.00115 18 5.57293 17.891 6.11076 17.6652L6.12533 17.659L6.13969 17.6525C6.64717 17.42 7.09882 17.1135 7.48509 16.7301C7.88709 16.3311 8.20131 15.8694 8.42364 15.3506C8.66683 14.8046 8.78804 14.2269 8.78804 13.6269C8.78804 12.9074 8.67964 12.2316 8.44041 11.6161C8.22041 11.0351 7.92389 10.5059 7.54757 10.0352C7.20843 9.57742 6.81763 9.16331 6.37681 8.79361Z" fill="white"/>
<path fill-rule="evenodd" clip-rule="evenodd" d="M17.0514 17.6618L17.031 17.6525C16.528 17.422 16.0757 17.1207 15.6801 16.7476L15.6618 16.7304L15.6445 16.7122C15.2686 16.3195 14.965 15.8706 14.7328 15.3713L14.7235 15.3511L14.715 15.3305C14.4925 14.7885 14.3827 14.218 14.3827 13.6269V4.37313C14.3827 3.78222 14.4925 3.21468 14.72 2.68084L14.7235 2.67276L14.7271 2.66474C14.96 2.14447 15.2696 1.6828 15.6621 1.29329C16.064 0.894275 16.5292 0.582395 17.0518 0.36171C17.602 0.12032 18.184 0 18.7885 0C19.3906 0 19.9676 0.119401 20.5079 0.364383C21.0248 0.583603 21.4811 0.893717 21.868 1.29319C22.2754 1.68221 22.5873 2.14622 22.8064 2.67247C23.0513 3.20705 23.1707 3.77778 23.1707 4.37313V13.6269C23.1707 14.2269 23.0495 14.8045 22.8064 15.3506C22.584 15.8694 22.2698 16.3311 21.8678 16.7301C21.4815 17.1135 21.0299 17.42 20.5224 17.6525L20.508 17.659L20.4935 17.6652C19.9556 17.891 19.3838 18 18.7885 18C18.193 18 17.6182 17.891 17.0721 17.6702L17.0514 17.6618ZM18.1454 15.146C18.3501 15.2319 18.5618 15.2745 18.7885 15.2745C19.0182 15.2745 19.2182 15.2308 19.3998 15.1497C19.6096 15.056 19.7852 14.9352 19.9341 14.7874C20.081 14.6415 20.2015 14.4698 20.2954 14.2652C20.3819 14.062 20.4249 13.8519 20.4249 13.6269V4.37312C20.4249 4.14514 20.3808 3.94664 20.2991 3.76634C20.2047 3.55814 20.083 3.38386 19.9341 3.23606C19.7852 3.08827 19.6096 2.96744 19.3998 2.87375C19.2182 2.79261 19.0182 2.74888 18.7885 2.74888C18.5618 2.74888 18.3501 2.79155 18.1454 2.87742C17.9393 2.97058 17.7663 3.09019 17.6193 3.23606C17.4704 3.38386 17.3487 3.55814 17.2543 3.76634C17.1726 3.94664 17.1285 4.14514 17.1285 4.37312V13.6269C17.1285 13.8519 17.1715 14.062 17.258 14.2652C17.3519 14.4698 17.4724 14.6415 17.6193 14.7874C17.7663 14.9332 17.9393 15.0528 18.1454 15.146Z" fill="white"/>
<path d="M31.5112 15.1574V0.0937091H28.7654V17.8829H36.5621V15.1574H31.5112Z" fill="white"/>
<path fill-rule="evenodd" clip-rule="evenodd" d="M43.8603 17.6525L43.8806 17.6618L43.9014 17.6702C44.4475 17.891 45.0223 18 45.6178 18C46.2131 18 46.7849 17.891 47.3227 17.6652L47.3373 17.659L47.3516 17.6525C47.8591 17.42 48.3108 17.1135 48.697 16.7301C49.0991 16.3311 49.4133 15.8694 49.6356 15.3506C49.8788 14.8045 50 14.2269 50 13.6269V4.37313C50 3.77776 49.8806 3.20703 49.6356 2.67244C49.4166 2.14621 49.1046 1.68221 48.6973 1.2932C48.3103 0.893728 47.8541 0.583607 47.3372 0.364383C46.7969 0.119401 46.2198 0 45.6178 0C45.0133 0 44.4313 0.12032 43.8811 0.36171C43.3584 0.582395 42.8933 0.894274 42.4913 1.29329C42.0989 1.6828 41.7893 2.14447 41.5563 2.66474L41.5528 2.67276L41.5493 2.68084C41.3218 3.21468 41.212 3.78222 41.212 4.37313V13.6269C41.212 14.218 41.3218 14.7885 41.5443 15.3305L41.5527 15.3511L41.5621 15.3713C41.7943 15.8706 42.0979 16.3195 42.4737 16.7122L42.4911 16.7304L42.5094 16.7476C42.905 17.1207 43.3573 17.422 43.8603 17.6525ZM44.9747 15.146C45.1794 15.2319 45.3911 15.2745 45.6178 15.2745C45.8475 15.2745 46.0474 15.2308 46.2291 15.1497C46.4388 15.056 46.6144 14.9352 46.7633 14.7874C46.9103 14.6415 47.0308 14.4698 47.1247 14.2652C47.2112 14.062 47.2542 13.8519 47.2542 13.6269V4.37312C47.2542 4.14514 47.2101 3.94664 47.1284 3.76634C47.034 3.55814 46.9122 3.38386 46.7633 3.23606C46.6144 3.08827 46.4388 2.96744 46.2291 2.87375C46.0474 2.79261 45.8475 2.74888 45.6178 2.74888C45.3911 2.74888 45.1794 2.79155 44.9747 2.87742C44.7685 2.97059 44.5956 3.0902 44.4486 3.23606C44.2997 3.38386 44.178 3.55814 44.0836 3.76634C44.0018 3.94664 43.9578 4.14514 43.9578 4.37312V13.6269C43.9578 13.8519 44.0008 14.062 44.0873 14.2652C44.1811 14.4698 44.3016 14.6415 44.4486 14.7874C44.5956 14.9332 44.7685 15.0528 44.9747 15.146Z" fill="white"/>
</svg>
