<svg width="100" height="100" viewBox="0 0 100 100" fill="none" xmlns="http://www.w3.org/2000/svg">
<path d="M70.8 93.8412H35.1588V79.2353C35.1588 76.0873 35.6213 73.2794 36.5367 70.8047C37.5551 68.3068 38.8492 66.0435 40.4183 64.0128C42.0922 61.874 43.9519 59.9215 45.9974 58.1549L45.9987 58.1538C48.1576 56.2765 50.3634 54.4461 52.6162 52.6626C54.8811 50.8696 57.0987 49.0294 59.2693 47.142L59.2704 47.141C61.552 45.1446 63.5513 43.0034 65.2666 40.717C67.0837 38.4207 68.5185 35.8857 69.5707 33.1137C70.728 30.314 71.3 27.0962 71.3 23.4706C71.3 20.5822 70.7226 17.8785 69.5646 15.3655C68.5061 12.7711 67.0127 10.5526 65.0831 8.71691C63.2501 6.78996 61.0804 5.2963 58.5787 4.23676C56.0649 3.07784 53.3601 2.5 50.4706 2.5C47.5797 2.5 44.8295 3.07833 42.2246 4.23538C39.7198 5.29571 37.5026 6.7903 35.5759 8.71703C33.7401 10.5528 32.2479 12.77 31.096 15.3616L31.096 15.3616L31.0925 15.3699C30.0295 17.8824 29.5 20.5844 29.5 23.4706V23.9706H30H34.6588H35.1588V23.4706C35.1588 21.3731 35.5688 19.4199 36.3854 17.6052C37.2084 15.7762 38.3037 14.1798 39.6712 12.8124C41.0377 11.4459 42.6326 10.3512 44.4599 9.52839C46.3725 8.70937 48.3746 8.3 50.4706 8.3C52.5681 8.3 54.5213 8.70993 56.336 9.52655C58.165 10.3496 59.7613 11.4449 61.1288 12.8124C62.4963 14.1798 63.5916 15.7762 64.4146 17.6052C65.2313 19.4199 65.6412 21.3731 65.6412 23.4706C65.6412 26.429 65.1792 29.0454 64.2666 31.3285C63.3446 33.5404 62.0995 35.6161 60.529 37.556L60.5244 37.5617L60.5199 37.5676C59.0371 39.5137 57.2735 41.371 55.2267 43.1387C53.2564 44.8275 51.1919 46.5167 49.033 48.2062L49.0288 48.2096C46.6699 50.0967 44.3113 52.0779 41.9531 54.1531C39.6689 56.1518 37.576 58.3876 35.6743 60.8598L35.6725 60.8622C33.8528 63.2565 32.3717 65.9816 31.2268 69.034C30.0718 72.0189 29.5 75.4222 29.5 79.2353V99V99.5H30H32.4H34.6588H70.8H71.3V99V94.3412V93.8412H70.8Z" fill="white" stroke="white"/>
</svg>
